<svg xmlns="http://www.w3.org/2000/svg" xmlns:xlink="http://www.w3.org/1999/xlink" width="400" zoomAndPan="magnify" viewBox="0 0 300 95.999999" height="128" preserveAspectRatio="xMidYMid meet" version="1.2"><defs/><g id="ef77e093c8"><g style="fill:#0097b2;fill-opacity:1;"><g transform="translate(69.850756, 61.124999)"><path style="stroke:none" d="M 3.078125 0 L 3.078125 -29.046875 L 22.25 -29.046875 L 22.25 -21.578125 L 11.453125 -21.578125 L 11.453125 -15.890625 L 21.171875 -15.890625 L 21.171875 -8.625 L 11.453125 -8.625 L 11.453125 0 Z M 3.078125 0 "/></g></g><g style="fill:#0097b2;fill-opacity:1;"><g transform="translate(93.669515, 61.124999)"><path style="stroke:none" d="M 3.078125 0 L 3.078125 -29.046875 L 11.453125 -29.046875 L 11.453125 -7.765625 L 23.328125 -7.765625 L 23.328125 0 Z M 3.078125 0 "/></g></g><g style="fill:#0097b2;fill-opacity:1;"><g transform="translate(118.027725, 61.124999)"><path style="stroke:none" d="M 17.21875 0.625 C 14.894531 0.625 12.769531 0.257812 10.84375 -0.46875 C 8.925781 -1.207031 7.257812 -2.253906 5.84375 -3.609375 C 4.4375 -4.960938 3.34375 -6.566406 2.5625 -8.421875 C 1.789062 -10.273438 1.40625 -12.3125 1.40625 -14.53125 C 1.40625 -16.738281 1.789062 -18.769531 2.5625 -20.625 C 3.34375 -22.476562 4.4375 -24.082031 5.84375 -25.4375 C 7.257812 -26.789062 8.925781 -27.832031 10.84375 -28.5625 C 12.769531 -29.300781 14.894531 -29.671875 17.21875 -29.671875 C 19.539062 -29.671875 21.664062 -29.300781 23.59375 -28.5625 C 25.519531 -27.832031 27.1875 -26.789062 28.59375 -25.4375 C 30 -24.082031 31.085938 -22.476562 31.859375 -20.625 C 32.640625 -18.769531 33.03125 -16.738281 33.03125 -14.53125 C 33.03125 -12.3125 32.640625 -10.273438 31.859375 -8.421875 C 31.085938 -6.566406 30 -4.960938 28.59375 -3.609375 C 27.1875 -2.253906 25.519531 -1.207031 23.59375 -0.46875 C 21.664062 0.257812 19.539062 0.625 17.21875 0.625 Z M 9.921875 -14.53125 C 9.921875 -13.082031 10.226562 -11.796875 10.84375 -10.671875 C 11.46875 -9.554688 12.332031 -8.6875 13.4375 -8.0625 C 14.550781 -7.445312 15.8125 -7.140625 17.21875 -7.140625 C 18.65625 -7.140625 19.921875 -7.445312 21.015625 -8.0625 C 22.109375 -8.6875 22.96875 -9.554688 23.59375 -10.671875 C 24.21875 -11.796875 24.53125 -13.082031 24.53125 -14.53125 C 24.53125 -15.988281 24.21875 -17.269531 23.59375 -18.375 C 22.96875 -19.488281 22.109375 -20.351562 21.015625 -20.96875 C 19.921875 -21.59375 18.65625 -21.90625 17.21875 -21.90625 C 15.8125 -21.90625 14.550781 -21.59375 13.4375 -20.96875 C 12.332031 -20.351562 11.46875 -19.488281 10.84375 -18.375 C 10.226562 -17.269531 9.921875 -15.988281 9.921875 -14.53125 Z M 9.921875 -14.53125 "/></g></g><g style="fill:#0097b2;fill-opacity:1;"><g transform="translate(152.510981, 61.124999)"><path style="stroke:none" d="M 9.546875 0 L 0.203125 -29.046875 L 9.09375 -29.046875 L 11.125 -22.578125 L 14.0625 -13.53125 L 17.015625 -22.578125 L 19.171875 -29.046875 L 27.140625 -29.046875 L 32.28125 -13.28125 L 35.28125 -22.578125 L 37.3125 -29.046875 L 46.109375 -29.046875 L 36.765625 0 L 28.421875 0 L 23.15625 -16.140625 L 17.890625 0 Z M 9.546875 0 "/></g></g><g style="fill:#22201f;fill-opacity:1;"><g transform="translate(198.827316, 61.124999)"><path style="stroke:none" d="M 11.125 0 L 0.203125 -29.046875 L 9.21875 -29.046875 L 12.609375 -19.46875 L 15.3125 -11.90625 L 18.015625 -19.46875 L 21.40625 -29.046875 L 30.34375 -29.046875 L 19.421875 0 Z M 11.125 0 "/></g></g><g style="fill:#22201f;fill-opacity:1;"><g transform="translate(229.368448, 61.124999)"><path style="stroke:none" d="M 3.078125 0 L 3.078125 -29.046875 L 11.453125 -29.046875 L 11.453125 0 Z M 3.078125 0 "/></g></g><g style="fill:#22201f;fill-opacity:1;"><g transform="translate(243.892087, 61.124999)"><path style="stroke:none" d="M 17.21875 0.625 C 14.894531 0.625 12.769531 0.257812 10.84375 -0.46875 C 8.925781 -1.207031 7.257812 -2.253906 5.84375 -3.609375 C 4.4375 -4.960938 3.34375 -6.566406 2.5625 -8.421875 C 1.789062 -10.273438 1.40625 -12.3125 1.40625 -14.53125 C 1.40625 -16.738281 1.789062 -18.769531 2.5625 -20.625 C 3.34375 -22.476562 4.4375 -24.082031 5.84375 -25.4375 C 7.257812 -26.789062 8.925781 -27.832031 10.84375 -28.5625 C 12.769531 -29.300781 14.894531 -29.671875 17.21875 -29.671875 C 19.539062 -29.671875 21.664062 -29.300781 23.59375 -28.5625 C 25.519531 -27.832031 27.1875 -26.789062 28.59375 -25.4375 C 30 -24.082031 31.085938 -22.476562 31.859375 -20.625 C 32.640625 -18.769531 33.03125 -16.738281 33.03125 -14.53125 C 33.03125 -12.3125 32.640625 -10.273438 31.859375 -8.421875 C 31.085938 -6.566406 30 -4.960938 28.59375 -3.609375 C 27.1875 -2.253906 25.519531 -1.207031 23.59375 -0.46875 C 21.664062 0.257812 19.539062 0.625 17.21875 0.625 Z M 9.921875 -14.53125 C 9.921875 -13.082031 10.226562 -11.796875 10.84375 -10.671875 C 11.46875 -9.554688 12.332031 -8.6875 13.4375 -8.0625 C 14.550781 -7.445312 15.8125 -7.140625 17.21875 -7.140625 C 18.65625 -7.140625 19.921875 -7.445312 21.015625 -8.0625 C 22.109375 -8.6875 22.96875 -9.554688 23.59375 -10.671875 C 24.21875 -11.796875 24.53125 -13.082031 24.53125 -14.53125 C 24.53125 -15.988281 24.21875 -17.269531 23.59375 -18.375 C 22.96875 -19.488281 22.109375 -20.351562 21.015625 -20.96875 C 19.921875 -21.59375 18.65625 -21.90625 17.21875 -21.90625 C 15.8125 -21.90625 14.550781 -21.59375 13.4375 -20.96875 C 12.332031 -20.351562 11.46875 -19.488281 10.84375 -18.375 C 10.226562 -17.269531 9.921875 -15.988281 9.921875 -14.53125 Z M 9.921875 -14.53125 "/></g></g><path style=" stroke:none;fill-rule:nonzero;fill:#22201f;fill-opacity:1;" d="M 39.523438 30.9375 L 32.773438 30.9375 L 32.773438 64.6875 L 39.523438 64.6875 L 39.523438 60.1875 L 37.273438 60.1875 L 37.273438 35.4375 L 39.523438 35.4375 Z M 39.523438 30.9375 "/><path style=" stroke:none;fill-rule:nonzero;fill:#22201f;fill-opacity:1;" d="M 59.773438 30.9375 L 66.523438 30.9375 L 66.523438 64.6875 L 59.773438 64.6875 L 59.773438 60.1875 L 62.023438 60.1875 L 62.023438 35.4375 L 59.773438 35.4375 Z M 59.773438 30.9375 "/><path style=" stroke:none;fill-rule:nonzero;fill:#0097b2;fill-opacity:1;" d="M 42.898438 41.0625 L 49.648438 47.8125 L 42.898438 54.5625 Z M 50.773438 41.0625 L 57.523438 47.8125 L 50.773438 54.5625 Z M 50.773438 41.0625 "/></g></svg>